<svg width="1552" height="408" viewBox="0 0 1552 408" fill="none" xmlns="http://www.w3.org/2000/svg">
<path d="M361.7 238V323.2L391.1 325.6V328H314V325.6L338.6 323.2V125.8L314 123.4V121H389.9C413.3 121 431.2 126 443.6 136C456.2 146 462.5 160.1 462.5 178.3C462.5 197.7 456.3 212.5 443.9 222.7C431.5 232.9 413.5 238 389.9 238H361.7ZM361.7 124.6V234.4H389C405.2 234.4 417 229.8 424.4 220.6C431.8 211.4 435.5 196.8 435.5 176.8C435.5 160.2 432.1 147.4 425.3 138.4C418.7 129.2 406.6 124.6 389 124.6H361.7ZM546.65 197.8C550.65 197.8 554.05 199.2 556.85 202C559.65 204.6 561.05 207.8 561.05 211.6C561.05 214.8 559.95 217.5 557.75 219.7C555.55 221.9 552.85 223 549.65 223C547.65 223 545.95 222.6 544.55 221.8C543.35 220.8 542.05 219.4 540.65 217.6C539.25 216 537.95 214.8 536.75 214C535.75 213.2 534.45 212.8 532.85 212.8C529.65 212.8 526.35 214.7 522.95 218.5C519.75 222.3 517.45 226.7 516.05 231.7V323.2L540.05 325.6V328H478.25V325.6L496.55 323.2V218.2L478.85 211.6V209.5L512.75 197.8H515.15V224.2C526.35 206.6 536.85 197.8 546.65 197.8ZM633.263 197.8C644.863 197.8 655.163 200.6 664.163 206.2C673.163 211.8 680.163 219.7 685.163 229.9C690.163 239.9 692.663 251.4 692.663 264.4C692.663 277.4 690.163 289 685.163 299.2C680.163 309.2 673.163 317 664.163 322.6C655.163 328.2 644.863 331 633.263 331C621.663 331 611.363 328.2 602.363 322.6C593.363 317 586.363 309.2 581.363 299.2C576.363 289 573.863 277.4 573.863 264.4C573.863 251.4 576.363 239.9 581.363 229.9C586.363 219.7 593.363 211.8 602.363 206.2C611.363 200.6 621.663 197.8 633.263 197.8ZM596.063 264.4C596.063 284.4 599.363 300 605.963 311.2C612.563 322.4 621.663 328 633.263 328C644.863 328 653.963 322.4 660.563 311.2C667.163 300 670.463 284.4 670.463 264.4C670.463 244.4 667.163 228.8 660.563 217.6C653.963 206.4 644.863 200.8 633.263 200.8C621.663 200.8 612.563 206.4 605.963 217.6C599.363 228.8 596.063 244.4 596.063 264.4ZM726.439 144.4C723.839 147 722.539 150.4 722.539 154.6C722.539 158.8 723.839 162.3 726.439 165.1C729.239 167.7 732.739 169 736.939 169C741.139 169 744.539 167.7 747.139 165.1C749.939 162.3 751.339 158.8 751.339 154.6C751.339 150.4 749.939 147 747.139 144.4C744.539 141.6 741.139 140.2 736.939 140.2C732.739 140.2 729.239 141.6 726.439 144.4ZM724.639 387.1C727.439 381.1 728.839 371.6 728.839 358.6V218.2L711.139 211.6V209.5L745.939 197.8H748.339V316C748.339 335.6 747.839 349.1 746.839 356.5C746.039 363.9 744.239 370.2 741.439 375.4C736.839 383.8 730.939 390.3 723.739 394.9C716.739 399.7 709.039 402.1 700.639 402.1C693.839 402.1 688.339 400.5 684.139 397.3C679.739 394.1 677.539 389.9 677.539 384.7C677.539 381.1 678.639 378.2 680.839 376C682.839 373.8 685.539 372.7 688.939 372.7C691.939 372.7 694.439 373.6 696.439 375.4C698.239 377.4 699.639 380.4 700.639 384.4C701.639 389 702.939 392.1 704.539 393.7C706.139 395.5 708.539 396.4 711.739 396.4C717.539 396.4 721.839 393.3 724.639 387.1ZM883.571 293.8L884.771 294.4L883.571 297.7C879.571 308.3 873.571 316.5 865.571 322.3C857.771 328.1 848.371 331 837.371 331C826.571 331 816.971 328.2 808.571 322.6C800.171 317 793.571 309.2 788.771 299.2C784.171 289.2 781.871 277.7 781.871 264.7C781.871 251.7 784.371 240.1 789.371 229.9C794.371 219.7 801.471 211.8 810.671 206.2C819.871 200.6 830.371 197.8 842.171 197.8C856.171 197.8 866.871 202 874.271 210.4C881.871 218.6 885.771 230.6 885.971 246.4L884.171 247.9H803.171C802.771 253.1 802.571 257.2 802.571 260.2C802.571 278.4 806.271 292.3 813.671 301.9C821.071 311.3 831.371 316 844.571 316C851.371 316 857.871 314.5 864.071 311.5C870.471 308.3 876.071 303.6 880.871 297.4L883.571 293.8ZM838.871 201.1C829.471 201.1 821.671 205 815.471 212.8C809.271 220.6 805.271 231.2 803.471 244.6L861.671 242.5C862.271 240.1 862.571 236.1 862.571 230.5C862.571 219.7 860.471 212.1 856.271 207.7C852.271 203.3 846.471 201.1 838.871 201.1ZM1037.43 325.6V328H999.027L948.327 266.5L939.927 276.7V323.2L957.927 325.6V328H902.127V325.6L920.427 323.2V132.1L902.727 125.5V123.4L937.527 111.7H939.927V271.3L982.527 220C986.127 215.4 987.927 212.2 987.927 210.4C987.927 208.6 986.627 207.2 984.027 206.2C981.427 205.2 976.527 204.2 969.327 203.2V200.8H1020.03V203.2C1012.03 204.6 1005.73 206.5 1001.13 208.9C996.727 211.1 992.527 214.6 988.527 219.4L961.527 251.2L1020.93 323.2L1037.43 325.6ZM1041.04 203.8L1074.04 172L1075.24 172.3V200.8H1109.44L1107.64 205.6H1075.24V297.4C1075.24 304.4 1076.34 309.6 1078.54 313C1080.94 317.8 1085.44 320.2 1092.04 320.2C1095.24 320.2 1098.34 319.4 1101.34 317.8C1104.34 316.2 1107.64 313.6 1111.24 310L1112.44 310.9C1109.44 317.1 1105.14 322 1099.54 325.6C1094.14 329.2 1088.34 331 1082.14 331C1075.74 331 1070.04 329.2 1065.04 325.6C1061.64 323.2 1059.24 320.1 1057.84 316.3C1056.44 312.5 1055.74 307.5 1055.74 301.3V205.3H1041.64L1041.04 203.8Z" fill="white"/>
<path d="M1150.1 328V320.8C1160.4 319.1 1168.15 317.05 1173.35 314.65C1178.55 312.15 1182.45 308.8 1185.05 304.6C1187.65 300.3 1190.2 294.65 1192.7 287.65L1250.15 128.8L1241.75 109.75L1272.95 93.55L1352.15 302.5C1353.85 307.1 1355.7 310.6 1357.7 313C1359.8 315.4 1362.75 317.15 1366.55 318.25C1370.35 319.35 1375.7 320.2 1382.6 320.8V328H1284.5V320.8C1294.2 320.2 1301.45 319.5 1306.25 318.7C1311.05 317.8 1313.8 315.85 1314.5 312.85C1315.2 309.75 1314.3 304.7 1311.8 297.7L1257.8 149.65H1256.9L1206.05 291.1C1203.85 297.2 1203.25 302.2 1204.25 306.1C1205.25 309.9 1208.2 312.95 1213.1 315.25C1218 317.45 1225.15 319.3 1234.55 320.8V328H1150.1ZM1217.3 246.4V233.8H1299.5V246.4H1217.3ZM1392.56 328V320.8L1419.26 314.8V112.45L1392.56 106.75V99.55H1479.26V106.75L1453.01 112.45V314.8L1479.26 320.8V328H1392.56Z" fill="white"/>
<path d="M1522.4 101.573C1519.12 101.573 1516.04 100.969 1513.16 99.76C1510.31 98.5224 1507.79 96.8244 1505.61 94.6659C1503.42 92.4785 1501.71 89.9602 1500.47 87.111C1499.23 84.2617 1498.61 81.211 1498.61 77.9588C1498.61 74.6778 1499.23 71.6127 1500.47 68.7634C1501.71 65.9141 1503.42 63.4102 1505.61 61.2517C1507.79 59.0932 1510.31 57.4095 1513.16 56.2007C1516.04 54.9632 1519.12 54.3444 1522.4 54.3444C1525.65 54.3444 1528.7 54.9632 1531.55 56.2007C1534.43 57.4095 1536.95 59.0932 1539.11 61.2517C1541.29 63.4102 1543.01 65.9141 1544.24 68.7634C1545.48 71.6127 1546.1 74.6778 1546.1 77.9588C1546.1 81.211 1545.48 84.2617 1544.24 87.111C1543.01 89.9602 1541.29 92.4785 1539.11 94.6659C1536.95 96.8244 1534.43 98.5224 1531.55 99.76C1528.7 100.969 1525.65 101.573 1522.4 101.573ZM1522.4 98.8102C1526.2 98.8102 1529.64 97.8605 1532.72 95.961C1535.8 94.0615 1538.24 91.5288 1540.06 88.3629C1541.9 85.1971 1542.82 81.729 1542.82 77.9588C1542.82 74.131 1541.9 70.6341 1540.06 67.4683C1538.24 64.3024 1535.8 61.7698 1532.72 59.8702C1529.64 57.9707 1526.2 57.021 1522.4 57.021C1518.6 57.021 1515.15 57.9707 1512.04 59.8702C1508.93 61.7698 1506.45 64.3024 1504.61 67.4683C1502.77 70.6341 1501.85 74.131 1501.85 77.9588C1501.85 81.729 1502.77 85.1971 1504.61 88.3629C1506.45 91.5288 1508.93 94.0615 1512.04 95.961C1515.15 97.8605 1518.6 98.8102 1522.4 98.8102ZM1512.56 90.4351V89.3127L1514.67 88.6219V66.2163L1512.56 65.5256V64.4463H1522.49C1525.31 64.4463 1527.61 65.0795 1529.39 66.3459C1531.21 67.6122 1532.11 69.3966 1532.11 71.699C1532.11 73.3971 1531.59 74.7929 1530.56 75.8866C1529.55 76.9515 1528.14 77.6998 1526.33 78.1315L1531.94 88.6219L1534.44 89.3127V90.4351H1527.1L1521.32 78.6495H1519.33V88.6219L1522.27 89.3127V90.4351H1512.56ZM1519.33 76.7932C1521.46 76.7932 1523.26 76.3902 1524.73 75.5844C1526.2 74.7785 1526.93 73.4115 1526.93 71.4832C1526.93 69.7851 1526.34 68.49 1525.16 67.5978C1524.01 66.7056 1522.07 66.2595 1519.33 66.2595V76.7932Z" fill="white"/>
<path fill-rule="evenodd" clip-rule="evenodd" d="M0.945999 350.092C0.147376 347.551 0 344.863 0 342.2V160.67C0 158.083 0.161468 155.484 0.816859 152.982C2.52144 146.474 5.30862 143.296 11.2468 139.563L46.972 117.706C61.9923 108.28 70.7997 100.569 81.1098 84.8006C85.3736 78.2796 87.3282 70.5526 87.3282 62.7613V16.4189C87.3282 11.5647 87.4205 6.14163 90.9085 2.76558C92.3011 1.41767 93.9961 0.62757 96.1399 0.257598C102.466 -0.834224 108.67 2.24412 114.11 5.65378L247.45 89.2335C250.947 91.4259 254.789 94.5439 257.114 97.9552V97.9552C259.833 101.945 260 106.262 260 111.09V191.223C258.838 200.342 257.205 203.755 252.723 207.118L185.903 249.506C177.375 255.348 174.326 259.209 174.656 268.05V338.57C174.656 341.004 174.426 343.432 173.969 345.823L173.416 348.713C172.708 352.415 171.188 355.914 168.966 358.958V358.958C167.044 361.592 164.634 363.832 161.868 365.558L105.852 400.512C92.3971 406.884 85.0702 408.718 73.4351 400.512L16.5394 366.734L16.4693 366.687C8.40956 361.281 3.40916 357.927 0.945999 350.092ZM90.4532 120.738C88.3992 124.622 87.2956 128.938 87.233 133.331L85.1572 279.098C85.0621 285.775 85.7192 293.039 90.4351 297.767C95.1573 302.501 100.691 301.432 109.822 296.53L161.756 263.083C169.177 257.763 171.594 253.553 172.341 243.545V160.417C172.341 152.126 169.006 144.245 161.756 140.225V140.225L116.768 113.07C109.438 109.064 104.679 108.411 98.2948 112C94.8185 113.954 92.3175 117.213 90.4532 120.738V120.738Z" fill="url(#paint0_linear_2007_79)"/>
<defs>
<linearGradient id="paint0_linear_2007_79" x1="130" y1="0" x2="130" y2="406" gradientUnits="userSpaceOnUse">
<stop stop-color="#0066FF"/>
<stop offset="1" stop-color="#DDDDDD"/>
</linearGradient>
</defs>
</svg>
