<svg width="260" height="406" viewBox="0 0 260 406" fill="none" xmlns="http://www.w3.org/2000/svg">
<path fill-rule="evenodd" clip-rule="evenodd" d="M0.945999 350.092C0.147376 347.551 0 344.863 0 342.2V160.67C0 158.083 0.161468 155.484 0.81686 152.982C2.52145 146.474 5.30862 143.296 11.2468 139.563L46.972 117.706C61.9923 108.28 70.7997 100.569 81.1098 84.8006C85.3736 78.2796 87.3282 70.5526 87.3282 62.7613V16.4189C87.3282 11.5647 87.4205 6.14163 90.9085 2.76558C92.3011 1.41767 93.9961 0.62757 96.1399 0.257598C102.466 -0.834224 108.67 2.24412 114.11 5.65378L247.45 89.2335C250.947 91.4259 254.789 94.5439 257.114 97.9552V97.9552C259.833 101.945 260 106.262 260 111.09V191.223C258.838 200.342 257.205 203.755 252.723 207.118L185.903 249.506C177.375 255.348 174.326 259.209 174.656 268.05V338.57C174.656 341.004 174.426 343.432 173.969 345.823L173.416 348.713C172.708 352.415 171.188 355.914 168.966 358.958V358.958C167.044 361.592 164.634 363.832 161.868 365.558L105.852 400.512C92.3971 406.884 85.0702 408.718 73.4351 400.512L16.5394 366.734L16.4693 366.687C8.40956 361.281 3.40915 357.927 0.945999 350.092ZM90.4532 120.738C88.3992 124.622 87.2956 128.938 87.233 133.331L85.1572 279.098C85.0621 285.775 85.7192 293.039 90.4351 297.767C95.1573 302.501 100.691 301.432 109.822 296.53L161.756 263.083C169.177 257.763 171.594 253.553 172.341 243.545V160.417C172.341 152.126 169.006 144.245 161.756 140.225V140.225L116.768 113.07C109.438 109.064 104.679 108.411 98.2948 112C94.8185 113.954 92.3175 117.213 90.4532 120.738V120.738Z" fill="url(#paint0_linear_2008_18)"/>
<defs>
<linearGradient id="paint0_linear_2008_18" x1="130" y1="0" x2="130" y2="406" gradientUnits="userSpaceOnUse">
<stop offset="0.721154" stop-color="#CCCCCC"/>
</linearGradient>
</defs>
</svg>
